<svg xmlns="http://www.w3.org/2000/svg" viewBox="0 -8 375 148" role="img" aria-label="shyn">
  <defs>
    <radialGradient id="sun" cx="50%" cy="50%" r="50%">
      <stop offset="0%" stop-color="#fffdf4"/><stop offset="20%" stop-color="#ffedb8"/>
      <stop offset="38%" stop-color="#f7c35a" stop-opacity=".9"/>
      <stop offset="52%" stop-color="#f5b942" stop-opacity=".5"/>
      <stop offset="66%" stop-color="#f5b942" stop-opacity=".22"/>
      <stop offset="82%" stop-color="#f5b942" stop-opacity=".07"/>
      <stop offset="100%" stop-color="#f5b942" stop-opacity="0"/>
    </radialGradient>
  </defs>
  <circle cx="296.5" cy="65" r="62" fill="url(#sun)"/>
  <g fill="#f2ecdc"><path d="M23.032486648857596 49.775873988866806Q26.738287447392942 49.775873988866806 29.59981836602092 50.42701504975557Q32.4613492846489 51.078156110644336 35.5489904537797 52.44083842784166L37.05505144745111 65.7646350517869H35.18536535352469L28.316703948378564 52.54999803304672L32.4171416297555 56.9140030413866Q29.912756745517257 54.59803171753883 27.684949620068075 53.61897415965795Q25.457142494618893 52.639916601777074 22.709631253778937 52.639916601777074Q18.515818150341513 52.639916601777074 16.266428993642332 54.342640147358175Q14.01703983694315 56.045363692939276 14.01703983694315 59.31595744639635Q14.01703983694315 61.27520998567343 14.932079543173312 62.820701653510326Q15.847119249403477 64.36619332134723 18.347923289984465 65.80960614904761Q20.848727330565453 67.253018976748 25.663163612782956 68.95077199339866Q29.24959933012724 70.19616501778364 31.771318639814854 71.7829217158258Q34.29303794950247 73.36967841386794 35.85316703021526 75.3178201392293Q37.41329611092806 77.26596186459065 38.13595408573747 79.63244726508856Q38.858612060546875 81.99893266558647 38.858612060546875 84.84944782704115Q38.858612060546875 89.77895546853543 36.208656607568265 93.45134636387229Q33.558701154589656 97.12373725920915 29.046540391445163 99.14547153487801Q24.53437962830067 101.16720581054688 18.837605921924116 101.16720581054688Q14.721658317744733 101.16720581054688 11.548710480332375 100.47979460805655Q8.375762642920018 99.79238340556621 5.740033356845379 98.4913362622261L3.203522711992264 83.5198303297162H5.241620950400829L13.66740387827158 98.78334360718728L9.91073815226555 95.69653812795877Q11.390454694628716 96.60756265372038 12.866979145258664 97.1785185828805Q14.343503595888615 97.74947451204062 15.859296637773515 98.020761654526Q17.375089679658412 98.29204879701138 18.880252957344055 98.29204879701138Q23.224088312685492 98.29204879701138 26.244056010991336 96.14386700466275Q29.26402370929718 93.99568521231413 29.26402370929718 89.62880239635706Q29.26402370929718 87.83796416372061 28.60612236112356 86.41367684677243Q27.948221012949944 84.98938952982425 26.516515707969667 83.77028134241701Q25.08481040298939 82.55117315500975 22.776362399756913 81.41967665329577Q20.46791439652443 80.28818015158177 17.134078285098077 79.14960219413042Q12.712455901503564 77.60379235893488 9.96060220450163 75.55571777597069Q7.2087485074996955 73.50764319300652 5.941070064902306 70.7771307349205Q4.673391622304917 68.0466182768345 4.673391622304917 64.52694467157124Q4.673391622304917 59.894879360496994 7.136292975395918 56.60150516778231Q9.59919432848692 53.30813097506761 13.765838861465454 51.54200248196721Q17.932483394443988 49.775873988866806 23.032486648857596 49.775873988866806Z"/><path d="M75.79489666920901 98.4243731096387 81.96210277628899 96.67925867736339V67.35671702772379Q81.96210277628899 64.47126200199128 80.9775111014843 62.5910558514297Q79.9929194266796 60.710849700868124 78.00121095505357 59.79110025018453Q76.00950248342753 58.87135079950094 72.91440803956985 58.87135079950094Q69.65985521477461 58.87135079950094 66.70180182483793 59.81504286676645Q63.743748434901235 60.75873493403196 61.59477205377817 62.0634292319417L60.75571477514505 60.85533892810344Q64.38859706771373 57.39052017778158 67.11878904056549 55.22603234797716Q69.84898101341724 53.06154451817274 72.09090999987721 51.90658152103424Q74.33283898633718 50.751618523895736 76.48485019606352 50.325672822445625Q78.63686140578986 49.89972712099552 81.1416698987484 49.89972712099552Q88.06729983341694 49.89972712099552 91.37918465834856 53.802476309984925Q94.69106948328019 57.70522549897432 94.69106948328019 65.74581180214881V96.59875005930662L101.0659015352726 98.4243731096387V100.0H75.79489666920901ZM69.23764392834902 100.0H43.89645060700178V98.4243731096387L50.25774023783207 96.59875005930662V38.068193322420115Q49.590399166464806 37.49673995673656 48.458336758881806 36.693603140115734Q47.32627435129881 35.890466323494906 45.76520788919926 34.873254355043166Q44.20414142709971 33.856042386591426 42.254141427099704 32.638896128535265V31.366783785820004L62.39371466290951 26.475445556640622H63.168368830800055L62.98670694482327 46.991601248085495V96.63590599894523L69.23764392834902 98.4243731096387Z"/><path d="M138.01207512563468 88.87746540755033 131.59144415801762 103.39273011237383 107.31293797737361 54.81123135834932 101.42057623809576 52.6942330673337V50.94307979941368H127.87375912761689V52.74005954265594L121.4350171635151 54.50946921408176ZM115.41945753788949 123.96879823505878Q112.11116748845578 123.96879823505878 109.95138739293813 122.2098699234426Q107.7916072974205 120.45094161182642 107.7916072974205 117.19361099302769Q107.7916072974205 115.6437821879983 108.34670383056998 114.55161831378936Q108.90180036371946 113.45945443958044 109.74915409556031 112.87331675291061Q110.59650782740117 112.28717906624078 111.37367054021358 112.28717906624078Q112.02322340703012 112.28717906624078 113.05668745732308 112.81701393648981Q114.09015150761604 113.34684880673885 115.58507033085823 113.88504396751523Q117.07998915410042 114.42323912829161 119.01582663303614 114.42323912829161Q121.26804959273339 114.42323912829161 122.93867169788481 113.85147227048874Q124.60929380303622 113.27970541268587 125.95971573016048 111.75345710292459Q127.31013765728474 110.2272087931633 128.5747332239747 107.39081226438284L132.50548813736438 98.32498498111963L135.8803114542961 90.19193064570428L148.35239634609223 54.25153897553682L141.85844571834804 52.74005954265594V50.94307979941368H158.45522077625992V52.74005954265594L152.78947745209933 54.2689998537302L132.465331561327 106.81906145215035Q129.8895126054287 113.43114533573389 127.32150275430084 117.16036774292587Q124.75349290317297 120.88959015011787 121.87222498676181 122.42919419258833Q118.99095707035065 123.96879823505878 115.41945753788949 123.96879823505878Z"/><path d="M177.82790328627823 60.12094915360212V96.67925867736339L183.9704585737586 98.4243731096387V100.0H158.73764694845676V98.4243731096387L165.09893657928706 96.59875005930662V61.19863676875829Q164.2388633198142 60.3471694663167 162.71752119502423 59.14556271210313Q161.19617907023428 57.94395595788956 158.38077891683577 56.129364715516566V54.87480312585831L176.50830539679527 49.50471497327089H177.2915881640315ZM190.63609301066398 98.4243731096387 196.80329911774396 96.67925867736339V67.35671702772379Q196.80329911774396 64.47126200199128 195.81870744293929 62.5910558514297Q194.83411576813458 60.710849700868124 192.84240729650855 59.79110025018453Q190.8506988248825 58.87135079950094 187.75560438102482 58.87135079950094Q184.50105155622958 58.87135079950094 181.5429981662929 59.81504286676645Q178.58494477635622 60.75873493403196 176.43596839523315 62.0634292319417L175.59691111660004 60.85533892810344Q179.2297934091687 57.39052017778158 181.95998538202048 55.22603234797716Q184.69017735487222 53.06154451817274 186.9321063413322 51.90658152103424Q189.17403532779215 50.751618523895736 191.3260465375185 50.325672822445625Q193.47805774724483 49.89972712099552 195.98286624020338 49.89972712099552Q202.9084961748719 49.89972712099552 206.22038099980352 53.802476309984925Q209.53226582473516 57.70522549897432 209.53226582473516 65.74581180214881V96.59875005930662L215.90709787672756 98.4243731096387V100.0H190.63609301066398Z"/></g>
</svg>